<svg xmlns="http://www.w3.org/2000/svg" width="1100" height="620" viewBox="0 0 1100 620">
<rect width="100%" height="100%" fill="#ffffff"/>
<text x="550.0" y="38" text-anchor="middle" font-family="Arial" font-size="24" font-weight="700" fill="#111827">Latencia do link</text>
<text x="550.0" y="62" text-anchor="middle" font-family="Arial" font-size="14" fill="#4b5563">Comparacao por execucao</text>
<line x1="90" y1="80.0" x2="1060" y2="80.0" stroke="#e5e7eb" stroke-width="1"/>
<text x="78" y="84.0" text-anchor="end" font-family="Arial" font-size="12" fill="#374151">517.566</text>
<line x1="90" y1="170.0" x2="1060" y2="170.0" stroke="#e5e7eb" stroke-width="1"/>
<text x="78" y="174.0" text-anchor="end" font-family="Arial" font-size="12" fill="#374151">406.042</text>
<line x1="90" y1="260.0" x2="1060" y2="260.0" stroke="#e5e7eb" stroke-width="1"/>
<text x="78" y="264.0" text-anchor="end" font-family="Arial" font-size="12" fill="#374151">294.518</text>
<line x1="90" y1="350.0" x2="1060" y2="350.0" stroke="#e5e7eb" stroke-width="1"/>
<text x="78" y="354.0" text-anchor="end" font-family="Arial" font-size="12" fill="#374151">182.993</text>
<line x1="90" y1="440.0" x2="1060" y2="440.0" stroke="#e5e7eb" stroke-width="1"/>
<text x="78" y="444.0" text-anchor="end" font-family="Arial" font-size="12" fill="#374151">71.469</text>
<line x1="90" y1="530.0" x2="1060" y2="530.0" stroke="#e5e7eb" stroke-width="1"/>
<text x="78" y="534.0" text-anchor="end" font-family="Arial" font-size="12" fill="#374151">-40.055</text>
<line x1="90.0" y1="80" x2="90.0" y2="530" stroke="#f3f4f6" stroke-width="1"/>
<text x="90.0" y="554" text-anchor="middle" font-family="Arial" font-size="12" fill="#374151">1</text>
<line x1="284.0" y1="80" x2="284.0" y2="530" stroke="#f3f4f6" stroke-width="1"/>
<text x="284.0" y="554" text-anchor="middle" font-family="Arial" font-size="12" fill="#374151">7</text>
<line x1="477.99999999999994" y1="80" x2="477.99999999999994" y2="530" stroke="#f3f4f6" stroke-width="1"/>
<text x="477.99999999999994" y="554" text-anchor="middle" font-family="Arial" font-size="12" fill="#374151">13</text>
<line x1="672.0" y1="80" x2="672.0" y2="530" stroke="#f3f4f6" stroke-width="1"/>
<text x="672.0" y="554" text-anchor="middle" font-family="Arial" font-size="12" fill="#374151">18</text>
<line x1="865.9999999999999" y1="80" x2="865.9999999999999" y2="530" stroke="#f3f4f6" stroke-width="1"/>
<text x="865.9999999999999" y="554" text-anchor="middle" font-family="Arial" font-size="12" fill="#374151">24</text>
<line x1="1060.0" y1="80" x2="1060.0" y2="530" stroke="#f3f4f6" stroke-width="1"/>
<text x="1060.0" y="554" text-anchor="middle" font-family="Arial" font-size="12" fill="#374151">30</text>
<line x1="90" y1="530" x2="1060" y2="530" stroke="#111827" stroke-width="1.5"/>
<line x1="90" y1="80" x2="90" y2="530" stroke="#111827" stroke-width="1.5"/>
<text x="575.0" y="590" text-anchor="middle" font-family="Arial" font-size="14" fill="#111827">Run</text>
<text x="24" y="305.0" text-anchor="middle" font-family="Arial" font-size="14" fill="#111827" transform="rotate(-90 24 305.0)">ms</text>
<polyline points="90.00,483.99 123.45,441.96 156.90,431.24 190.34,427.02 223.79,481.89 257.24,446.27 290.69,477.28 324.14,472.05 357.59,486.43 391.03,480.74 424.48,412.83 457.93,472.84 491.38,481.83 524.83,457.95 558.28,416.11 591.72,424.67 625.17,472.05 658.62,485.05 692.07,445.13 725.52,422.46 758.97,411.75 792.41,459.22 825.86,437.52 859.31,451.68 892.76,473.25 926.21,464.04 959.66,422.63 993.10,476.29 1026.55,413.93 1060.00,463.43" fill="none" stroke="#2563eb" stroke-width="3"/>
<circle cx="90.00" cy="483.99" r="4" fill="#2563eb">
<title>pqc run 1: 16.953</title>
</circle>
<circle cx="123.45" cy="441.96" r="4" fill="#2563eb">
<title>pqc run 2: 69.044</title>
</circle>
<circle cx="156.90" cy="431.24" r="4" fill="#2563eb">
<title>pqc run 3: 82.326</title>
</circle>
<circle cx="190.34" cy="427.02" r="4" fill="#2563eb">
<title>pqc run 4: 87.558</title>
</circle>
<circle cx="223.79" cy="481.89" r="4" fill="#2563eb">
<title>pqc run 5: 19.562</title>
</circle>
<circle cx="257.24" cy="446.27" r="4" fill="#2563eb">
<title>pqc run 6: 63.694</title>
</circle>
<circle cx="290.69" cy="477.28" r="4" fill="#2563eb">
<title>pqc run 7: 25.279</title>
</circle>
<circle cx="324.14" cy="472.05" r="4" fill="#2563eb">
<title>pqc run 8: 31.756</title>
</circle>
<circle cx="357.59" cy="486.43" r="4" fill="#2563eb">
<title>pqc run 9: 13.938</title>
</circle>
<circle cx="391.03" cy="480.74" r="4" fill="#2563eb">
<title>pqc run 10: 20.988</title>
</circle>
<circle cx="424.48" cy="412.83" r="4" fill="#2563eb">
<title>pqc run 11: 105.143</title>
</circle>
<circle cx="457.93" cy="472.84" r="4" fill="#2563eb">
<title>pqc run 12: 30.779</title>
</circle>
<circle cx="491.38" cy="481.83" r="4" fill="#2563eb">
<title>pqc run 13: 19.634</title>
</circle>
<circle cx="524.83" cy="457.95" r="4" fill="#2563eb">
<title>pqc run 14: 49.226</title>
</circle>
<circle cx="558.28" cy="416.11" r="4" fill="#2563eb">
<title>pqc run 15: 101.070</title>
</circle>
<circle cx="591.72" cy="424.67" r="4" fill="#2563eb">
<title>pqc run 16: 90.460</title>
</circle>
<circle cx="625.17" cy="472.05" r="4" fill="#2563eb">
<title>pqc run 17: 31.749</title>
</circle>
<circle cx="658.62" cy="485.05" r="4" fill="#2563eb">
<title>pqc run 18: 15.640</title>
</circle>
<circle cx="692.07" cy="445.13" r="4" fill="#2563eb">
<title>pqc run 19: 65.112</title>
</circle>
<circle cx="725.52" cy="422.46" r="4" fill="#2563eb">
<title>pqc run 20: 93.210</title>
</circle>
<circle cx="758.97" cy="411.75" r="4" fill="#2563eb">
<title>pqc run 21: 106.476</title>
</circle>
<circle cx="792.41" cy="459.22" r="4" fill="#2563eb">
<title>pqc run 22: 47.658</title>
</circle>
<circle cx="825.86" cy="437.52" r="4" fill="#2563eb">
<title>pqc run 23: 74.538</title>
</circle>
<circle cx="859.31" cy="451.68" r="4" fill="#2563eb">
<title>pqc run 24: 56.999</title>
</circle>
<circle cx="892.76" cy="473.25" r="4" fill="#2563eb">
<title>pqc run 25: 30.265</title>
</circle>
<circle cx="926.21" cy="464.04" r="4" fill="#2563eb">
<title>pqc run 26: 41.677</title>
</circle>
<circle cx="959.66" cy="422.63" r="4" fill="#2563eb">
<title>pqc run 27: 92.995</title>
</circle>
<circle cx="993.10" cy="476.29" r="4" fill="#2563eb">
<title>pqc run 28: 26.500</title>
</circle>
<circle cx="1026.55" cy="413.93" r="4" fill="#2563eb">
<title>pqc run 29: 103.768</title>
</circle>
<circle cx="1060.00" cy="463.43" r="4" fill="#2563eb">
<title>pqc run 30: 42.437</title>
</circle>
<polyline points="90.00,483.92 123.45,442.00 156.90,431.06 190.34,426.99 223.79,481.82 257.24,446.05 290.69,477.47 324.14,472.04 357.59,486.16 391.03,480.70 424.48,412.88 457.93,473.24 491.38,481.79 524.83,458.07 558.28,415.95 591.72,424.78 625.17,472.21 658.62,485.02 692.07,445.14 725.52,422.54 758.97,433.25 792.41,459.13 825.86,437.52 859.31,451.55 892.76,473.22 926.21,467.85 959.66,422.47 993.10,476.16 1026.55,413.95 1060.00,463.47" fill="none" stroke="#f97316" stroke-width="3"/>
<circle cx="90.00" cy="483.92" r="4" fill="#f97316">
<title>hybrid run 1: 17.048</title>
</circle>
<circle cx="123.45" cy="442.00" r="4" fill="#f97316">
<title>hybrid run 2: 68.989</title>
</circle>
<circle cx="156.90" cy="431.06" r="4" fill="#f97316">
<title>hybrid run 3: 82.546</title>
</circle>
<circle cx="190.34" cy="426.99" r="4" fill="#f97316">
<title>hybrid run 4: 87.594</title>
</circle>
<circle cx="223.79" cy="481.82" r="4" fill="#f97316">
<title>hybrid run 5: 19.642</title>
</circle>
<circle cx="257.24" cy="446.05" r="4" fill="#f97316">
<title>hybrid run 6: 63.972</title>
</circle>
<circle cx="290.69" cy="477.47" r="4" fill="#f97316">
<title>hybrid run 7: 25.040</title>
</circle>
<circle cx="324.14" cy="472.04" r="4" fill="#f97316">
<title>hybrid run 8: 31.762</title>
</circle>
<circle cx="357.59" cy="486.16" r="4" fill="#f97316">
<title>hybrid run 9: 14.265</title>
</circle>
<circle cx="391.03" cy="480.70" r="4" fill="#f97316">
<title>hybrid run 10: 21.031</title>
</circle>
<circle cx="424.48" cy="412.88" r="4" fill="#f97316">
<title>hybrid run 11: 105.079</title>
</circle>
<circle cx="457.93" cy="473.24" r="4" fill="#f97316">
<title>hybrid run 12: 30.284</title>
</circle>
<circle cx="491.38" cy="481.79" r="4" fill="#f97316">
<title>hybrid run 13: 19.680</title>
</circle>
<circle cx="524.83" cy="458.07" r="4" fill="#f97316">
<title>hybrid run 14: 49.083</title>
</circle>
<circle cx="558.28" cy="415.95" r="4" fill="#f97316">
<title>hybrid run 15: 101.276</title>
</circle>
<circle cx="591.72" cy="424.78" r="4" fill="#f97316">
<title>hybrid run 16: 90.333</title>
</circle>
<circle cx="625.17" cy="472.21" r="4" fill="#f97316">
<title>hybrid run 17: 31.552</title>
</circle>
<circle cx="658.62" cy="485.02" r="4" fill="#f97316">
<title>hybrid run 18: 15.678</title>
</circle>
<circle cx="692.07" cy="445.14" r="4" fill="#f97316">
<title>hybrid run 19: 65.099</title>
</circle>
<circle cx="725.52" cy="422.54" r="4" fill="#f97316">
<title>hybrid run 20: 93.104</title>
</circle>
<circle cx="758.97" cy="433.25" r="4" fill="#f97316">
<title>hybrid run 21: 79.839</title>
</circle>
<circle cx="792.41" cy="459.13" r="4" fill="#f97316">
<title>hybrid run 22: 47.769</title>
</circle>
<circle cx="825.86" cy="437.52" r="4" fill="#f97316">
<title>hybrid run 23: 74.544</title>
</circle>
<circle cx="859.31" cy="451.55" r="4" fill="#f97316">
<title>hybrid run 24: 57.151</title>
</circle>
<circle cx="892.76" cy="473.22" r="4" fill="#f97316">
<title>hybrid run 25: 30.301</title>
</circle>
<circle cx="926.21" cy="467.85" r="4" fill="#f97316">
<title>hybrid run 26: 36.963</title>
</circle>
<circle cx="959.66" cy="422.47" r="4" fill="#f97316">
<title>hybrid run 27: 93.194</title>
</circle>
<circle cx="993.10" cy="476.16" r="4" fill="#f97316">
<title>hybrid run 28: 26.660</title>
</circle>
<circle cx="1026.55" cy="413.95" r="4" fill="#f97316">
<title>hybrid run 29: 103.749</title>
</circle>
<circle cx="1060.00" cy="463.47" r="4" fill="#f97316">
<title>hybrid run 30: 42.382</title>
</circle>
<polyline points="90.00,483.84 123.45,442.28 156.90,431.25 190.34,426.54 223.79,481.58 257.24,446.18 290.69,477.42 324.14,472.07 357.59,486.45 391.03,480.78 424.48,412.87 457.93,473.23 491.38,481.73 524.83,458.11 558.28,415.91 591.72,424.65 625.17,471.98 658.62,484.97 692.07,445.03 725.52,123.55 758.97,411.87 792.41,459.14 825.86,437.53 859.31,451.59 892.76,472.99 926.21,467.78 959.66,422.63 993.10,476.19 1026.55,403.34 1060.00,463.32" fill="none" stroke="#16a34a" stroke-width="3"/>
<circle cx="90.00" cy="483.84" r="4" fill="#16a34a">
<title>classical run 1: 17.139</title>
</circle>
<circle cx="123.45" cy="442.28" r="4" fill="#16a34a">
<title>classical run 2: 68.641</title>
</circle>
<circle cx="156.90" cy="431.25" r="4" fill="#16a34a">
<title>classical run 3: 82.309</title>
</circle>
<circle cx="190.34" cy="426.54" r="4" fill="#16a34a">
<title>classical run 4: 88.149</title>
</circle>
<circle cx="223.79" cy="481.58" r="4" fill="#16a34a">
<title>classical run 5: 19.948</title>
</circle>
<circle cx="257.24" cy="446.18" r="4" fill="#16a34a">
<title>classical run 6: 63.807</title>
</circle>
<circle cx="290.69" cy="477.42" r="4" fill="#16a34a">
<title>classical run 7: 25.100</title>
</circle>
<circle cx="324.14" cy="472.07" r="4" fill="#16a34a">
<title>classical run 8: 31.723</title>
</circle>
<circle cx="357.59" cy="486.45" r="4" fill="#16a34a">
<title>classical run 9: 13.908</title>
</circle>
<circle cx="391.03" cy="480.78" r="4" fill="#16a34a">
<title>classical run 10: 20.941</title>
</circle>
<circle cx="424.48" cy="412.87" r="4" fill="#16a34a">
<title>classical run 11: 105.087</title>
</circle>
<circle cx="457.93" cy="473.23" r="4" fill="#16a34a">
<title>classical run 12: 30.296</title>
</circle>
<circle cx="491.38" cy="481.73" r="4" fill="#16a34a">
<title>classical run 13: 19.765</title>
</circle>
<circle cx="524.83" cy="458.11" r="4" fill="#16a34a">
<title>classical run 14: 49.032</title>
</circle>
<circle cx="558.28" cy="415.91" r="4" fill="#16a34a">
<title>classical run 15: 101.321</title>
</circle>
<circle cx="591.72" cy="424.65" r="4" fill="#16a34a">
<title>classical run 16: 90.488</title>
</circle>
<circle cx="625.17" cy="471.98" r="4" fill="#16a34a">
<title>classical run 17: 31.846</title>
</circle>
<circle cx="658.62" cy="484.97" r="4" fill="#16a34a">
<title>classical run 18: 15.748</title>
</circle>
<circle cx="692.07" cy="445.03" r="4" fill="#16a34a">
<title>classical run 19: 65.238</title>
</circle>
<circle cx="725.52" cy="123.55" r="4" fill="#16a34a">
<title>classical run 20: 463.603</title>
</circle>
<circle cx="758.97" cy="411.87" r="4" fill="#16a34a">
<title>classical run 21: 106.326</title>
</circle>
<circle cx="792.41" cy="459.14" r="4" fill="#16a34a">
<title>classical run 22: 47.746</title>
</circle>
<circle cx="825.86" cy="437.53" r="4" fill="#16a34a">
<title>classical run 23: 74.527</title>
</circle>
<circle cx="859.31" cy="451.59" r="4" fill="#16a34a">
<title>classical run 24: 57.113</title>
</circle>
<circle cx="892.76" cy="472.99" r="4" fill="#16a34a">
<title>classical run 25: 30.586</title>
</circle>
<circle cx="926.21" cy="467.78" r="4" fill="#16a34a">
<title>classical run 26: 37.047</title>
</circle>
<circle cx="959.66" cy="422.63" r="4" fill="#16a34a">
<title>classical run 27: 92.995</title>
</circle>
<circle cx="993.10" cy="476.19" r="4" fill="#16a34a">
<title>classical run 28: 26.622</title>
</circle>
<circle cx="1026.55" cy="403.34" r="4" fill="#16a34a">
<title>classical run 29: 116.900</title>
</circle>
<circle cx="1060.00" cy="463.32" r="4" fill="#16a34a">
<title>classical run 30: 42.568</title>
</circle>
<line x1="90" y1="558" x2="122" y2="558" stroke="#2563eb" stroke-width="4"/>
<circle cx="106" cy="558" r="4" fill="#2563eb"/>
<text x="132" y="563" font-family="Arial" font-size="14" fill="#111827">pqc</text>
<line x1="270" y1="558" x2="302" y2="558" stroke="#f97316" stroke-width="4"/>
<circle cx="286" cy="558" r="4" fill="#f97316"/>
<text x="312" y="563" font-family="Arial" font-size="14" fill="#111827">hybrid</text>
<line x1="450" y1="558" x2="482" y2="558" stroke="#16a34a" stroke-width="4"/>
<circle cx="466" cy="558" r="4" fill="#16a34a"/>
<text x="492" y="563" font-family="Arial" font-size="14" fill="#111827">classical</text>
</svg>