<svg xmlns="http://www.w3.org/2000/svg" width="1100" height="620" viewBox="0 0 1100 620">
<rect width="100%" height="100%" fill="#ffffff"/>
<text x="550.0" y="38" text-anchor="middle" font-family="Arial" font-size="24" font-weight="700" fill="#111827">Latencia do link</text>
<text x="550.0" y="62" text-anchor="middle" font-family="Arial" font-size="14" fill="#4b5563">Comparacao por execucao</text>
<line x1="90" y1="80.0" x2="1060" y2="80.0" stroke="#e5e7eb" stroke-width="1"/>
<text x="78" y="84.0" text-anchor="end" font-family="Arial" font-size="12" fill="#374151">14.844</text>
<line x1="90" y1="170.0" x2="1060" y2="170.0" stroke="#e5e7eb" stroke-width="1"/>
<text x="78" y="174.0" text-anchor="end" font-family="Arial" font-size="12" fill="#374151">14.329</text>
<line x1="90" y1="260.0" x2="1060" y2="260.0" stroke="#e5e7eb" stroke-width="1"/>
<text x="78" y="264.0" text-anchor="end" font-family="Arial" font-size="12" fill="#374151">13.813</text>
<line x1="90" y1="350.0" x2="1060" y2="350.0" stroke="#e5e7eb" stroke-width="1"/>
<text x="78" y="354.0" text-anchor="end" font-family="Arial" font-size="12" fill="#374151">13.298</text>
<line x1="90" y1="440.0" x2="1060" y2="440.0" stroke="#e5e7eb" stroke-width="1"/>
<text x="78" y="444.0" text-anchor="end" font-family="Arial" font-size="12" fill="#374151">12.782</text>
<line x1="90" y1="530.0" x2="1060" y2="530.0" stroke="#e5e7eb" stroke-width="1"/>
<text x="78" y="534.0" text-anchor="end" font-family="Arial" font-size="12" fill="#374151">12.267</text>
<line x1="90.0" y1="80" x2="90.0" y2="530" stroke="#f3f4f6" stroke-width="1"/>
<text x="90.0" y="554" text-anchor="middle" font-family="Arial" font-size="12" fill="#374151">1</text>
<line x1="284.0" y1="80" x2="284.0" y2="530" stroke="#f3f4f6" stroke-width="1"/>
<text x="284.0" y="554" text-anchor="middle" font-family="Arial" font-size="12" fill="#374151">7</text>
<line x1="477.99999999999994" y1="80" x2="477.99999999999994" y2="530" stroke="#f3f4f6" stroke-width="1"/>
<text x="477.99999999999994" y="554" text-anchor="middle" font-family="Arial" font-size="12" fill="#374151">13</text>
<line x1="672.0" y1="80" x2="672.0" y2="530" stroke="#f3f4f6" stroke-width="1"/>
<text x="672.0" y="554" text-anchor="middle" font-family="Arial" font-size="12" fill="#374151">18</text>
<line x1="865.9999999999999" y1="80" x2="865.9999999999999" y2="530" stroke="#f3f4f6" stroke-width="1"/>
<text x="865.9999999999999" y="554" text-anchor="middle" font-family="Arial" font-size="12" fill="#374151">24</text>
<line x1="1060.0" y1="80" x2="1060.0" y2="530" stroke="#f3f4f6" stroke-width="1"/>
<text x="1060.0" y="554" text-anchor="middle" font-family="Arial" font-size="12" fill="#374151">30</text>
<line x1="90" y1="530" x2="1060" y2="530" stroke="#111827" stroke-width="1.5"/>
<line x1="90" y1="80" x2="90" y2="530" stroke="#111827" stroke-width="1.5"/>
<text x="575.0" y="590" text-anchor="middle" font-family="Arial" font-size="14" fill="#111827">Run</text>
<text x="24" y="305.0" text-anchor="middle" font-family="Arial" font-size="14" fill="#111827" transform="rotate(-90 24 305.0)">ms</text>
<polyline points="90.00,398.30 123.45,431.12 156.90,411.22 190.34,429.02 223.79,424.48 257.24,412.27 290.69,405.81 324.14,390.79 357.59,416.80 391.03,397.95 424.48,410.00 457.93,393.06 491.38,397.60 524.83,442.46 558.28,375.96 591.72,396.03 625.17,457.30 658.62,486.45 692.07,397.25 725.52,384.51 758.97,412.09 792.41,369.15 825.86,421.17 859.31,408.25 892.76,392.19 926.21,388.35 959.66,403.54 993.10,399.52 1026.55,383.81 1060.00,409.47" fill="none" stroke="#2563eb" stroke-width="3"/>
<circle cx="90.00" cy="398.30" r="4" fill="#2563eb">
<title>pqc run 1: 13.021</title>
</circle>
<circle cx="123.45" cy="431.12" r="4" fill="#2563eb">
<title>pqc run 2: 12.833</title>
</circle>
<circle cx="156.90" cy="411.22" r="4" fill="#2563eb">
<title>pqc run 3: 12.947</title>
</circle>
<circle cx="190.34" cy="429.02" r="4" fill="#2563eb">
<title>pqc run 4: 12.845</title>
</circle>
<circle cx="223.79" cy="424.48" r="4" fill="#2563eb">
<title>pqc run 5: 12.871</title>
</circle>
<circle cx="257.24" cy="412.27" r="4" fill="#2563eb">
<title>pqc run 6: 12.941</title>
</circle>
<circle cx="290.69" cy="405.81" r="4" fill="#2563eb">
<title>pqc run 7: 12.978</title>
</circle>
<circle cx="324.14" cy="390.79" r="4" fill="#2563eb">
<title>pqc run 8: 13.064</title>
</circle>
<circle cx="357.59" cy="416.80" r="4" fill="#2563eb">
<title>pqc run 9: 12.915</title>
</circle>
<circle cx="391.03" cy="397.95" r="4" fill="#2563eb">
<title>pqc run 10: 13.023</title>
</circle>
<circle cx="424.48" cy="410.00" r="4" fill="#2563eb">
<title>pqc run 11: 12.954</title>
</circle>
<circle cx="457.93" cy="393.06" r="4" fill="#2563eb">
<title>pqc run 12: 13.051</title>
</circle>
<circle cx="491.38" cy="397.60" r="4" fill="#2563eb">
<title>pqc run 13: 13.025</title>
</circle>
<circle cx="524.83" cy="442.46" r="4" fill="#2563eb">
<title>pqc run 14: 12.768</title>
</circle>
<circle cx="558.28" cy="375.96" r="4" fill="#2563eb">
<title>pqc run 15: 13.149</title>
</circle>
<circle cx="591.72" cy="396.03" r="4" fill="#2563eb">
<title>pqc run 16: 13.034</title>
</circle>
<circle cx="625.17" cy="457.30" r="4" fill="#2563eb">
<title>pqc run 17: 12.683</title>
</circle>
<circle cx="658.62" cy="486.45" r="4" fill="#2563eb">
<title>pqc run 18: 12.516</title>
</circle>
<circle cx="692.07" cy="397.25" r="4" fill="#2563eb">
<title>pqc run 19: 13.027</title>
</circle>
<circle cx="725.52" cy="384.51" r="4" fill="#2563eb">
<title>pqc run 20: 13.100</title>
</circle>
<circle cx="758.97" cy="412.09" r="4" fill="#2563eb">
<title>pqc run 21: 12.942</title>
</circle>
<circle cx="792.41" cy="369.15" r="4" fill="#2563eb">
<title>pqc run 22: 13.188</title>
</circle>
<circle cx="825.86" cy="421.17" r="4" fill="#2563eb">
<title>pqc run 23: 12.890</title>
</circle>
<circle cx="859.31" cy="408.25" r="4" fill="#2563eb">
<title>pqc run 24: 12.964</title>
</circle>
<circle cx="892.76" cy="392.19" r="4" fill="#2563eb">
<title>pqc run 25: 13.056</title>
</circle>
<circle cx="926.21" cy="388.35" r="4" fill="#2563eb">
<title>pqc run 26: 13.078</title>
</circle>
<circle cx="959.66" cy="403.54" r="4" fill="#2563eb">
<title>pqc run 27: 12.991</title>
</circle>
<circle cx="993.10" cy="399.52" r="4" fill="#2563eb">
<title>pqc run 28: 13.014</title>
</circle>
<circle cx="1026.55" cy="383.81" r="4" fill="#2563eb">
<title>pqc run 29: 13.104</title>
</circle>
<circle cx="1060.00" cy="409.47" r="4" fill="#2563eb">
<title>pqc run 30: 12.957</title>
</circle>
<polyline points="90.00,371.77 123.45,421.34 156.90,426.58 190.34,411.57 223.79,399.00 257.24,420.47 290.69,471.96 324.14,373.69 357.59,400.05 391.03,435.66 424.48,477.90 457.93,426.93 491.38,403.01 524.83,406.68 558.28,406.68 591.72,414.71 625.17,402.14 658.62,386.95 692.07,407.20 725.52,429.72 758.97,428.15 792.41,438.45 825.86,409.12 859.31,384.51 892.76,367.40 926.21,425.18 959.66,406.85 993.10,398.65 1026.55,418.55 1060.00,417.33" fill="none" stroke="#f97316" stroke-width="3"/>
<circle cx="90.00" cy="371.77" r="4" fill="#f97316">
<title>hybrid run 1: 13.173</title>
</circle>
<circle cx="123.45" cy="421.34" r="4" fill="#f97316">
<title>hybrid run 2: 12.889</title>
</circle>
<circle cx="156.90" cy="426.58" r="4" fill="#f97316">
<title>hybrid run 3: 12.859</title>
</circle>
<circle cx="190.34" cy="411.57" r="4" fill="#f97316">
<title>hybrid run 4: 12.945</title>
</circle>
<circle cx="223.79" cy="399.00" r="4" fill="#f97316">
<title>hybrid run 5: 13.017</title>
</circle>
<circle cx="257.24" cy="420.47" r="4" fill="#f97316">
<title>hybrid run 6: 12.894</title>
</circle>
<circle cx="290.69" cy="471.96" r="4" fill="#f97316">
<title>hybrid run 7: 12.599</title>
</circle>
<circle cx="324.14" cy="373.69" r="4" fill="#f97316">
<title>hybrid run 8: 13.162</title>
</circle>
<circle cx="357.59" cy="400.05" r="4" fill="#f97316">
<title>hybrid run 9: 13.011</title>
</circle>
<circle cx="391.03" cy="435.66" r="4" fill="#f97316">
<title>hybrid run 10: 12.807</title>
</circle>
<circle cx="424.48" cy="477.90" r="4" fill="#f97316">
<title>hybrid run 11: 12.565</title>
</circle>
<circle cx="457.93" cy="426.93" r="4" fill="#f97316">
<title>hybrid run 12: 12.857</title>
</circle>
<circle cx="491.38" cy="403.01" r="4" fill="#f97316">
<title>hybrid run 13: 12.994</title>
</circle>
<circle cx="524.83" cy="406.68" r="4" fill="#f97316">
<title>hybrid run 14: 12.973</title>
</circle>
<circle cx="558.28" cy="406.68" r="4" fill="#f97316">
<title>hybrid run 15: 12.973</title>
</circle>
<circle cx="591.72" cy="414.71" r="4" fill="#f97316">
<title>hybrid run 16: 12.927</title>
</circle>
<circle cx="625.17" cy="402.14" r="4" fill="#f97316">
<title>hybrid run 17: 12.999</title>
</circle>
<circle cx="658.62" cy="386.95" r="4" fill="#f97316">
<title>hybrid run 18: 13.086</title>
</circle>
<circle cx="692.07" cy="407.20" r="4" fill="#f97316">
<title>hybrid run 19: 12.970</title>
</circle>
<circle cx="725.52" cy="429.72" r="4" fill="#f97316">
<title>hybrid run 20: 12.841</title>
</circle>
<circle cx="758.97" cy="428.15" r="4" fill="#f97316">
<title>hybrid run 21: 12.850</title>
</circle>
<circle cx="792.41" cy="438.45" r="4" fill="#f97316">
<title>hybrid run 22: 12.791</title>
</circle>
<circle cx="825.86" cy="409.12" r="4" fill="#f97316">
<title>hybrid run 23: 12.959</title>
</circle>
<circle cx="859.31" cy="384.51" r="4" fill="#f97316">
<title>hybrid run 24: 13.100</title>
</circle>
<circle cx="892.76" cy="367.40" r="4" fill="#f97316">
<title>hybrid run 25: 13.198</title>
</circle>
<circle cx="926.21" cy="425.18" r="4" fill="#f97316">
<title>hybrid run 26: 12.867</title>
</circle>
<circle cx="959.66" cy="406.85" r="4" fill="#f97316">
<title>hybrid run 27: 12.972</title>
</circle>
<circle cx="993.10" cy="398.65" r="4" fill="#f97316">
<title>hybrid run 28: 13.019</title>
</circle>
<circle cx="1026.55" cy="418.55" r="4" fill="#f97316">
<title>hybrid run 29: 12.905</title>
</circle>
<circle cx="1060.00" cy="417.33" r="4" fill="#f97316">
<title>hybrid run 30: 12.912</title>
</circle>
<polyline points="90.00,434.96 123.45,378.58 156.90,397.43 190.34,388.35 223.79,388.53 257.24,441.77 290.69,441.59 324.14,417.85 357.59,414.19 391.03,403.01 424.48,406.68 457.93,390.79 491.38,402.14 524.83,386.61 558.28,396.21 591.72,412.09 625.17,420.99 658.62,392.19 692.07,400.92 725.52,417.15 758.97,401.27 792.41,396.55 825.86,428.32 859.31,411.22 892.76,387.48 926.21,409.82 959.66,437.23 993.10,394.11 1026.55,401.62 1060.00,123.55" fill="none" stroke="#16a34a" stroke-width="3"/>
<circle cx="90.00" cy="434.96" r="4" fill="#16a34a">
<title>classical run 1: 12.811</title>
</circle>
<circle cx="123.45" cy="378.58" r="4" fill="#16a34a">
<title>classical run 2: 13.134</title>
</circle>
<circle cx="156.90" cy="397.43" r="4" fill="#16a34a">
<title>classical run 3: 13.026</title>
</circle>
<circle cx="190.34" cy="388.35" r="4" fill="#16a34a">
<title>classical run 4: 13.078</title>
</circle>
<circle cx="223.79" cy="388.53" r="4" fill="#16a34a">
<title>classical run 5: 13.077</title>
</circle>
<circle cx="257.24" cy="441.77" r="4" fill="#16a34a">
<title>classical run 6: 12.772</title>
</circle>
<circle cx="290.69" cy="441.59" r="4" fill="#16a34a">
<title>classical run 7: 12.773</title>
</circle>
<circle cx="324.14" cy="417.85" r="4" fill="#16a34a">
<title>classical run 8: 12.909</title>
</circle>
<circle cx="357.59" cy="414.19" r="4" fill="#16a34a">
<title>classical run 9: 12.930</title>
</circle>
<circle cx="391.03" cy="403.01" r="4" fill="#16a34a">
<title>classical run 10: 12.994</title>
</circle>
<circle cx="424.48" cy="406.68" r="4" fill="#16a34a">
<title>classical run 11: 12.973</title>
</circle>
<circle cx="457.93" cy="390.79" r="4" fill="#16a34a">
<title>classical run 12: 13.064</title>
</circle>
<circle cx="491.38" cy="402.14" r="4" fill="#16a34a">
<title>classical run 13: 12.999</title>
</circle>
<circle cx="524.83" cy="386.61" r="4" fill="#16a34a">
<title>classical run 14: 13.088</title>
</circle>
<circle cx="558.28" cy="396.21" r="4" fill="#16a34a">
<title>classical run 15: 13.033</title>
</circle>
<circle cx="591.72" cy="412.09" r="4" fill="#16a34a">
<title>classical run 16: 12.942</title>
</circle>
<circle cx="625.17" cy="420.99" r="4" fill="#16a34a">
<title>classical run 17: 12.891</title>
</circle>
<circle cx="658.62" cy="392.19" r="4" fill="#16a34a">
<title>classical run 18: 13.056</title>
</circle>
<circle cx="692.07" cy="400.92" r="4" fill="#16a34a">
<title>classical run 19: 13.006</title>
</circle>
<circle cx="725.52" cy="417.15" r="4" fill="#16a34a">
<title>classical run 20: 12.913</title>
</circle>
<circle cx="758.97" cy="401.27" r="4" fill="#16a34a">
<title>classical run 21: 13.004</title>
</circle>
<circle cx="792.41" cy="396.55" r="4" fill="#16a34a">
<title>classical run 22: 13.031</title>
</circle>
<circle cx="825.86" cy="428.32" r="4" fill="#16a34a">
<title>classical run 23: 12.849</title>
</circle>
<circle cx="859.31" cy="411.22" r="4" fill="#16a34a">
<title>classical run 24: 12.947</title>
</circle>
<circle cx="892.76" cy="387.48" r="4" fill="#16a34a">
<title>classical run 25: 13.083</title>
</circle>
<circle cx="926.21" cy="409.82" r="4" fill="#16a34a">
<title>classical run 26: 12.955</title>
</circle>
<circle cx="959.66" cy="437.23" r="4" fill="#16a34a">
<title>classical run 27: 12.798</title>
</circle>
<circle cx="993.10" cy="394.11" r="4" fill="#16a34a">
<title>classical run 28: 13.045</title>
</circle>
<circle cx="1026.55" cy="401.62" r="4" fill="#16a34a">
<title>classical run 29: 13.002</title>
</circle>
<circle cx="1060.00" cy="123.55" r="4" fill="#16a34a">
<title>classical run 30: 14.595</title>
</circle>
<line x1="90" y1="558" x2="122" y2="558" stroke="#2563eb" stroke-width="4"/>
<circle cx="106" cy="558" r="4" fill="#2563eb"/>
<text x="132" y="563" font-family="Arial" font-size="14" fill="#111827">pqc</text>
<line x1="270" y1="558" x2="302" y2="558" stroke="#f97316" stroke-width="4"/>
<circle cx="286" cy="558" r="4" fill="#f97316"/>
<text x="312" y="563" font-family="Arial" font-size="14" fill="#111827">hybrid</text>
<line x1="450" y1="558" x2="482" y2="558" stroke="#16a34a" stroke-width="4"/>
<circle cx="466" cy="558" r="4" fill="#16a34a"/>
<text x="492" y="563" font-family="Arial" font-size="14" fill="#111827">classical</text>
</svg>